<svg xmlns="http://www.w3.org/2000/svg" xmlns:xlink="http://www.w3.org/1999/xlink" width="1090" height="1232.34"><rect width="1090" height="1232.34" rx="5" ry="5" class="a"/><svg y="0%" x="0%"><circle cx="20" cy="20" r="6" fill="#ff5f58"/><circle cx="40" cy="20" r="6" fill="#ffbd2e"/><circle cx="60" cy="20" r="6" fill="#18c132"/></svg><svg height="1172.34" viewBox="0 0 105 117.234" width="1050" x="15" xmlns="http://www.w3.org/2000/svg" xmlns:xlink="http://www.w3.org/1999/xlink" y="50"><style>@keyframes k{0%{transform:translateX(0)}.13%{transform:translateX(-105px)}6.54%{transform:translateX(-210px)}6.96%{transform:translateX(-315px)}7.41%{transform:translateX(-420px)}7.92%{transform:translateX(-525px)}8.37%{transform:translateX(-630px)}10.35%{transform:translateX(-735px)}10.77%{transform:translateX(-840px)}12%{transform:translateX(-945px)}13.41%{transform:translateX(-1050px)}13.92%{transform:translateX(-1155px)}16%{transform:translateX(-1260px)}17.73%{transform:translateX(-1365px)}18.3%{transform:translateX(-1470px)}19.5%{transform:translateX(-1575px)}20.01%{transform:translateX(-1680px)}21.87%{transform:translateX(-1785px)}25.32%{transform:translateX(-1890px)}25.68%{transform:translateX(-1995px)}26.73%{transform:translateX(-2100px)}27.06%{transform:translateX(-2205px)}38.32%{transform:translateX(-2415px)}43.29%{transform:translateX(-2520px)}48.45%{transform:translateX(-2625px)}48.78%{transform:translateX(-2730px)}60.04%{transform:translateX(-2835px)}60.05%{transform:translateX(-2940px)}63.01%{transform:translateX(-3045px)}66.97%{transform:translateX(-3150px)}67.29%{transform:translateX(-3255px)}78.54%{transform:translateX(-3360px)}78.56%{transform:translateX(-3465px)}81.88%{transform:translateX(-3570px)}82.66%{transform:translateX(-3675px)}82.98%{transform:translateX(-3780px)}94.23%{transform:translateX(-3885px)}94.25%{transform:translateX(-3990px)}to{transform:translateX(-4095px)}}.a{fill:#282d35}.f,.g,.h{white-space:pre}.f{fill:#a8cc8c;font-weight:700}.g,.h{fill:#b9c0cb}.h{fill:#71bef2;font-weight:700}</style><g font-family="Monaco,Consolas,Menlo,'Bitstream Vera Sans Mono','Powerline Symbols',monospace" font-size="1.67"><defs><symbol id="1"><text y="1.67" class="f">iir@iir-S551LB</text><text x="14.028" y="1.67" class="g">:</text><text x="15.03" y="1.67" class="h">~/rubytut/lesson3</text><text x="32.064" y="1.67" class="g">$</text></symbol><symbol id="2"><text y="1.67" class="f">iir@iir-S551LB</text><text x="14.028" y="1.67" class="g">:</text><text x="15.03" y="1.67" class="h">~/rubytut/lesson3</text><text x="32.064" y="1.67" class="g">$</text><text x="34.068" y="1.67" class="g">ruby</text></symbol><symbol id="3"><text y="1.67" class="f">iir@iir-S551LB</text><text x="14.028" y="1.67" class="g">:</text><text x="15.03" y="1.67" class="h">~/rubytut/lesson3</text><text x="32.064" y="1.67" class="g">$</text><text x="34.068" y="1.67" class="g">ruby</text><text x="39.078" y="1.67" class="g">magic_ball.rb</text></symbol><symbol id="4"><text y="1.67" class="g">Кто</text><text x="4.008" y="1.67" class="g">вопрошает,</text><text x="15.03" y="1.67" class="g">тот</text><text x="19.038" y="1.67" class="g">получит</text><text x="27.054" y="1.67" class="g">ответ:</text></symbol><symbol id="5"><text y="1.67" class="g">Хорошие</text><text x="8.016" y="1.67" class="g">перспективы</text></symbol><symbol id="6"><text y="1.67" class="g">Привет,</text><text x="8.016" y="1.67" class="g">дорогой</text><text x="16.032" y="1.67" class="g">друг.</text><text x="22.044" y="1.67" class="g">Отвечаю</text><text x="30.06" y="1.67" class="g">на</text><text x="33.066" y="1.67" class="g">твой</text><text x="38.076" y="1.67" class="g">вопрос...</text></symbol><symbol id="7"><text y="1.67" class="g">Лучше</text><text x="6.012" y="1.67" class="g">не</text><text x="9.018" y="1.67" class="g">рассказывать</text></symbol><symbol id="8"><text y="1.67" class="g">Весьма</text><text x="7.014" y="1.67" class="g">сомнительно</text></symbol><symbol id="9"><text y="1.67" class="g">Пока</text><text x="5.01" y="1.67" class="g">не</text><text x="8.016" y="1.67" class="g">ясно,</text><text x="14.028" y="1.67" class="g">попробуй</text><text x="23.046" y="1.67" class="g">снова</text></symbol><symbol id="a"><path fill="transparent" d="M0 0h105v54H0z"/></symbol><symbol id="b"><path fill="#6f7683" d="M0 0h1.102v2.171H0z"/></symbol></defs><path class="a" d="M0 0h105v117.234H0z"/><g style="animation-duration:26.668714s;animation-iteration-count:infinite;animation-name:k;animation-timing-function:steps(1,end)"><svg width="4200"><svg><use xlink:href="#a"/><use xlink:href="#b" x="-.004"/></svg><svg x="105"><use xlink:href="#a"/><use xlink:href="#b" x="33.996"/><use xlink:href="#1"/></svg><svg x="210"><use xlink:href="#a"/><use xlink:href="#b" x="34.996"/><text y="1.67" class="f">iir@iir-S551LB</text><text x="14.028" y="1.67" class="g">:</text><text x="15.03" y="1.67" class="h">~/rubytut/lesson3</text><text x="32.064" y="1.67" class="g">$</text><text x="34.068" y="1.67" class="g">r</text></svg><svg x="315"><use xlink:href="#a"/><use xlink:href="#b" x="35.996"/><text y="1.67" class="f">iir@iir-S551LB</text><text x="14.028" y="1.67" class="g">:</text><text x="15.03" y="1.67" class="h">~/rubytut/lesson3</text><text x="32.064" y="1.67" class="g">$</text><text x="34.068" y="1.67" class="g">ru</text></svg><svg x="420"><use xlink:href="#a"/><use xlink:href="#b" x="36.996"/><text y="1.67" class="f">iir@iir-S551LB</text><text x="14.028" y="1.67" class="g">:</text><text x="15.03" y="1.67" class="h">~/rubytut/lesson3</text><text x="32.064" y="1.67" class="g">$</text><text x="34.068" y="1.67" class="g">rub</text></svg><svg x="525"><use xlink:href="#a"/><use xlink:href="#b" x="37.996"/><use xlink:href="#2"/></svg><svg x="630"><use xlink:href="#a"/><use xlink:href="#b" x="38.996"/><use xlink:href="#2"/></svg><svg x="735"><use xlink:href="#a"/><use xlink:href="#b" x="39.996"/><text y="1.67" class="f">iir@iir-S551LB</text><text x="14.028" y="1.67" class="g">:</text><text x="15.03" y="1.67" class="h">~/rubytut/lesson3</text><text x="32.064" y="1.67" class="g">$</text><text x="34.068" y="1.67" class="g">ruby</text><text x="39.078" y="1.67" class="g">m</text></svg><svg x="840"><use xlink:href="#a"/><use xlink:href="#b" x="40.996"/><text y="1.67" class="f">iir@iir-S551LB</text><text x="14.028" y="1.67" class="g">:</text><text x="15.03" y="1.67" class="h">~/rubytut/lesson3</text><text x="32.064" y="1.67" class="g">$</text><text x="34.068" y="1.67" class="g">ruby</text><text x="39.078" y="1.67" class="g">ma</text></svg><svg x="945"><use xlink:href="#a"/><use xlink:href="#b" x="41.996"/><text y="1.67" class="f">iir@iir-S551LB</text><text x="14.028" y="1.67" class="g">:</text><text x="15.03" y="1.67" class="h">~/rubytut/lesson3</text><text x="32.064" y="1.67" class="g">$</text><text x="34.068" y="1.67" class="g">ruby</text><text x="39.078" y="1.67" class="g">mag</text></svg><svg x="1050"><use xlink:href="#a"/><use xlink:href="#b" x="42.996"/><text y="1.67" class="f">iir@iir-S551LB</text><text x="14.028" y="1.67" class="g">:</text><text x="15.03" y="1.67" class="h">~/rubytut/lesson3</text><text x="32.064" y="1.67" class="g">$</text><text x="34.068" y="1.67" class="g">ruby</text><text x="39.078" y="1.67" class="g">magi</text></svg><svg x="1155"><use xlink:href="#a"/><use xlink:href="#b" x="43.996"/><text y="1.67" class="f">iir@iir-S551LB</text><text x="14.028" y="1.67" class="g">:</text><text x="15.03" y="1.67" class="h">~/rubytut/lesson3</text><text x="32.064" y="1.67" class="g">$</text><text x="34.068" y="1.67" class="g">ruby</text><text x="39.078" y="1.67" class="g">magic</text></svg><svg x="1260"><use xlink:href="#a"/><use xlink:href="#b" x="44.996"/><text y="1.67" class="f">iir@iir-S551LB</text><text x="14.028" y="1.67" class="g">:</text><text x="15.03" y="1.67" class="h">~/rubytut/lesson3</text><text x="32.064" y="1.67" class="g">$</text><text x="34.068" y="1.67" class="g">ruby</text><text x="39.078" y="1.67" class="g">magic_</text></svg><svg x="1365"><use xlink:href="#a"/><use xlink:href="#b" x="45.996"/><text y="1.67" class="f">iir@iir-S551LB</text><text x="14.028" y="1.67" class="g">:</text><text x="15.03" y="1.67" class="h">~/rubytut/lesson3</text><text x="32.064" y="1.67" class="g">$</text><text x="34.068" y="1.67" class="g">ruby</text><text x="39.078" y="1.67" class="g">magic_b</text></svg><svg x="1470"><use xlink:href="#a"/><use xlink:href="#b" x="46.996"/><text y="1.67" class="f">iir@iir-S551LB</text><text x="14.028" y="1.67" class="g">:</text><text x="15.03" y="1.67" class="h">~/rubytut/lesson3</text><text x="32.064" y="1.67" class="g">$</text><text x="34.068" y="1.67" class="g">ruby</text><text x="39.078" y="1.67" class="g">magic_ba</text></svg><svg x="1575"><use xlink:href="#a"/><use xlink:href="#b" x="47.996"/><text y="1.67" class="f">iir@iir-S551LB</text><text x="14.028" y="1.67" class="g">:</text><text x="15.03" y="1.67" class="h">~/rubytut/lesson3</text><text x="32.064" y="1.67" class="g">$</text><text x="34.068" y="1.67" class="g">ruby</text><text x="39.078" y="1.67" class="g">magic_bal</text></svg><svg x="1680"><use xlink:href="#a"/><use xlink:href="#b" x="48.996"/><text y="1.67" class="f">iir@iir-S551LB</text><text x="14.028" y="1.67" class="g">:</text><text x="15.03" y="1.67" class="h">~/rubytut/lesson3</text><text x="32.064" y="1.67" class="g">$</text><text x="34.068" y="1.67" class="g">ruby</text><text x="39.078" y="1.67" class="g">magic_ball</text></svg><svg x="1785"><use xlink:href="#a"/><use xlink:href="#b" x="49.996"/><text y="1.67" class="f">iir@iir-S551LB</text><text x="14.028" y="1.67" class="g">:</text><text x="15.03" y="1.67" class="h">~/rubytut/lesson3</text><text x="32.064" y="1.67" class="g">$</text><text x="34.068" y="1.67" class="g">ruby</text><text x="39.078" y="1.67" class="g">magic_ball.</text></svg><svg x="1890"><use xlink:href="#a"/><use xlink:href="#b" x="50.996"/><text y="1.67" class="f">iir@iir-S551LB</text><text x="14.028" y="1.67" class="g">:</text><text x="15.03" y="1.67" class="h">~/rubytut/lesson3</text><text x="32.064" y="1.67" class="g">$</text><text x="34.068" y="1.67" class="g">ruby</text><text x="39.078" y="1.67" class="g">magic_ball.r</text></svg><svg x="1995"><use xlink:href="#a"/><use xlink:href="#b" x="51.996"/><use xlink:href="#3"/></svg><svg x="2100"><use xlink:href="#a"/><use xlink:href="#b" x="-.004" y="2.146"/><use xlink:href="#3"/></svg><svg x="2205"><use xlink:href="#a"/><use xlink:href="#b" x="-.004" y="6.488"/><use xlink:href="#3"/><use xlink:href="#4" y="2.171"/></svg><svg x="2310"><use xlink:href="#a"/><use xlink:href="#b" x="-.004" y="8.659"/><use xlink:href="#3"/><use xlink:href="#4" y="2.171"/><use xlink:href="#5" y="6.513"/></svg><svg x="2415"><use xlink:href="#a"/><use xlink:href="#b" x="33.996" y="8.659"/><use xlink:href="#3"/><use xlink:href="#4" y="2.171"/><use xlink:href="#5" y="6.513"/><use xlink:href="#1" y="8.684"/></svg><svg x="2520"><use xlink:href="#a"/><use xlink:href="#b" x="51.996" y="8.659"/><use xlink:href="#3"/><use xlink:href="#4" y="2.171"/><use xlink:href="#5" y="6.513"/><use xlink:href="#3" y="8.684"/></svg><svg x="2625"><use xlink:href="#a"/><use xlink:href="#b" x="-.004" y="10.83"/><use xlink:href="#3"/><use xlink:href="#4" y="2.171"/><use xlink:href="#5" y="6.513"/><use xlink:href="#3" y="8.684"/></svg><svg x="2730"><use xlink:href="#a"/><use xlink:href="#b" x="-.004" y="15.172"/><use xlink:href="#3"/><use xlink:href="#4" y="2.171"/><use xlink:href="#5" y="6.513"/><use xlink:href="#3" y="8.684"/><use xlink:href="#6" y="10.855"/></svg><svg x="2835"><use xlink:href="#a"/><use xlink:href="#b" x="-.004" y="17.343"/><use xlink:href="#3"/><use xlink:href="#4" y="2.171"/><use xlink:href="#5" y="6.513"/><use xlink:href="#3" y="8.684"/><use xlink:href="#6" y="10.855"/><use xlink:href="#7" y="15.197"/></svg><svg x="2940"><use xlink:href="#a"/><use xlink:href="#b" x="33.996" y="17.343"/><use xlink:href="#3"/><use xlink:href="#4" y="2.171"/><use xlink:href="#5" y="6.513"/><use xlink:href="#3" y="8.684"/><use xlink:href="#6" y="10.855"/><use xlink:href="#7" y="15.197"/><use xlink:href="#1" y="17.368"/></svg><svg x="3045"><use xlink:href="#a"/><use xlink:href="#b" x="51.996" y="17.343"/><use xlink:href="#3"/><use xlink:href="#4" y="2.171"/><use xlink:href="#5" y="6.513"/><use xlink:href="#3" y="8.684"/><use xlink:href="#6" y="10.855"/><use xlink:href="#7" y="15.197"/><use xlink:href="#3" y="17.368"/></svg><svg x="3150"><use xlink:href="#a"/><use xlink:href="#b" x="-.004" y="19.514"/><use xlink:href="#3"/><use xlink:href="#4" y="2.171"/><use xlink:href="#5" y="6.513"/><use xlink:href="#3" y="8.684"/><use xlink:href="#6" y="10.855"/><use xlink:href="#7" y="15.197"/><use xlink:href="#3" y="17.368"/></svg><svg x="3255"><use xlink:href="#a"/><use xlink:href="#b" x="-.004" y="23.856"/><use xlink:href="#3"/><use xlink:href="#4" y="2.171"/><use xlink:href="#5" y="6.513"/><use xlink:href="#3" y="8.684"/><use xlink:href="#6" y="10.855"/><use xlink:href="#7" y="15.197"/><use xlink:href="#3" y="17.368"/><use xlink:href="#6" y="19.539"/></svg><svg x="3360"><use xlink:href="#a"/><use xlink:href="#b" x="-.004" y="26.027"/><use xlink:href="#3"/><use xlink:href="#4" y="2.171"/><use xlink:href="#5" y="6.513"/><use xlink:href="#3" y="8.684"/><use xlink:href="#6" y="10.855"/><use xlink:href="#7" y="15.197"/><use xlink:href="#3" y="17.368"/><use xlink:href="#6" y="19.539"/><use xlink:href="#8" y="23.881"/></svg><svg x="3465"><use xlink:href="#a"/><use xlink:href="#b" x="33.996" y="26.027"/><use xlink:href="#3"/><use xlink:href="#4" y="2.171"/><use xlink:href="#5" y="6.513"/><use xlink:href="#3" y="8.684"/><use xlink:href="#6" y="10.855"/><use xlink:href="#7" y="15.197"/><use xlink:href="#3" y="17.368"/><use xlink:href="#6" y="19.539"/><use xlink:href="#8" y="23.881"/><use xlink:href="#1" y="26.052"/></svg><svg x="3570"><use xlink:href="#a"/><use xlink:href="#b" x="51.996" y="26.027"/><use xlink:href="#3"/><use xlink:href="#4" y="2.171"/><use xlink:href="#5" y="6.513"/><use xlink:href="#3" y="8.684"/><use xlink:href="#6" y="10.855"/><use xlink:href="#7" y="15.197"/><use xlink:href="#3" y="17.368"/><use xlink:href="#6" y="19.539"/><use xlink:href="#8" y="23.881"/><use xlink:href="#3" y="26.052"/></svg><svg x="3675"><use xlink:href="#a"/><use xlink:href="#b" x="-.004" y="28.198"/><use xlink:href="#3"/><use xlink:href="#4" y="2.171"/><use xlink:href="#5" y="6.513"/><use xlink:href="#3" y="8.684"/><use xlink:href="#6" y="10.855"/><use xlink:href="#7" y="15.197"/><use xlink:href="#3" y="17.368"/><use xlink:href="#6" y="19.539"/><use xlink:href="#8" y="23.881"/><use xlink:href="#3" y="26.052"/></svg><svg x="3780"><use xlink:href="#a"/><use xlink:href="#b" x="-.004" y="32.54"/><use xlink:href="#3"/><use xlink:href="#4" y="2.171"/><use xlink:href="#5" y="6.513"/><use xlink:href="#3" y="8.684"/><use xlink:href="#6" y="10.855"/><use xlink:href="#7" y="15.197"/><use xlink:href="#3" y="17.368"/><use xlink:href="#6" y="19.539"/><use xlink:href="#8" y="23.881"/><use xlink:href="#3" y="26.052"/><use xlink:href="#6" y="28.223"/></svg><svg x="3885"><use xlink:href="#a"/><use xlink:href="#b" x="-.004" y="34.711"/><use xlink:href="#3"/><use xlink:href="#4" y="2.171"/><use xlink:href="#5" y="6.513"/><use xlink:href="#3" y="8.684"/><use xlink:href="#6" y="10.855"/><use xlink:href="#7" y="15.197"/><use xlink:href="#3" y="17.368"/><use xlink:href="#6" y="19.539"/><use xlink:href="#8" y="23.881"/><use xlink:href="#3" y="26.052"/><use xlink:href="#6" y="28.223"/><use xlink:href="#9" y="32.565"/></svg><svg x="3990"><use xlink:href="#a"/><use xlink:href="#b" x="33.996" y="34.711"/><use xlink:href="#3"/><use xlink:href="#4" y="2.171"/><use xlink:href="#5" y="6.513"/><use xlink:href="#3" y="8.684"/><use xlink:href="#6" y="10.855"/><use xlink:href="#7" y="15.197"/><use xlink:href="#3" y="17.368"/><use xlink:href="#6" y="19.539"/><use xlink:href="#8" y="23.881"/><use xlink:href="#3" y="26.052"/><use xlink:href="#6" y="28.223"/><use xlink:href="#9" y="32.565"/><use xlink:href="#1" y="34.736"/></svg><svg x="4095"><use xlink:href="#a"/><use xlink:href="#b" x="-.004" y="36.882"/><use xlink:href="#3"/><use xlink:href="#4" y="2.171"/><use xlink:href="#5" y="6.513"/><use xlink:href="#3" y="8.684"/><use xlink:href="#6" y="10.855"/><use xlink:href="#7" y="15.197"/><use xlink:href="#3" y="17.368"/><use xlink:href="#6" y="19.539"/><use xlink:href="#8" y="23.881"/><use xlink:href="#3" y="26.052"/><use xlink:href="#6" y="28.223"/><use xlink:href="#9" y="32.565"/><text y="36.406" class="f">iir@iir-S551LB</text><text x="14.028" y="36.406" class="g">:</text><text x="15.03" y="36.406" class="h">~/rubytut/lesson3</text><text x="32.064" y="36.406" class="g">$</text><text x="34.068" y="36.406" class="g">exit</text></svg></svg></g></g></svg></svg>